# xmcd
#
# Track frame offsets:
#	150
#	15067
#	36629
#	50139
#	65700
#	83320
#	113416
#	130993
#	150646
#	164267
#	189920
#	209346
#	225396
#	244962
#
# Disc length: 3554 seconds
#
# Revision: 0
# Processed by: cddbd v1.5.2PL0 Copyright (c) Steve Scherf et al.
# Submitted via: EZCDAudioConverter 1.2.5.1
#
DISCID=ad0de00e
DTITLE=John Mayall - In the Palace of the King
DYEAR=2007
DGENRE=Blues
TTITLE0=You Know That You Love Me
TTITLE1=Goin' Down
TTITLE2=Some Other Day, Some Other Time
TTITLE3=Palace of the King
TTITLE4=I'd Rather Be Blind
TTITLE5=Time to Go
TTITLE6=Big Legged Woman
TTITLE7=Now I Got a Woman
TTITLE8=I Love You More Every Day
TTITLE9=Help Me Through the Day
TTITLE10=Cannonball Shuffle
TTITLE11=You've Got Me Licked
TTITLE12=King of the Kings
TTITLE13=Living on the Highway
EXTD=
EXTT0=
EXTT1=
EXTT2=
EXTT3=
EXTT4=
EXTT5=
EXTT6=
EXTT7=
EXTT8=
EXTT9=
EXTT10=
EXTT11=
EXTT12=
EXTT13=
PLAYORDER=
